Coordinates
version=1
nRows=38
nColumns=12
inDegrees=yes

Units are S.I. units (second, meters, Newtons, ...)
Angles are in degrees

endheader
time	SC_y	SC_z	SC_x	AC_y	AC_z	AC_x	GH_y	GH_z	GH_yy	EL_x	PS_y
       0.0              -53.68          34.53          50.38          47.67          9.116          4.084         -43.04          15.51         -156.4          70.03          147.1
    0.0423              -53.68          34.53          50.38          47.67          9.112          4.084         -43.04          15.51         -156.4          70.03          147.1
   0.08461              -53.67          34.53          50.38          47.67          9.108          4.084         -43.04          15.52         -156.4          70.03          147.1
    0.1269              -53.67          34.53          50.38          47.67          9.103          4.084         -43.05          15.53         -156.4          70.03          147.1
    0.1692              -53.67          34.52          50.38          47.67          9.098          4.084         -43.05          15.54         -156.4          70.03          147.1
    0.2115              -53.67          34.52          50.37          47.67          9.093          4.084         -43.05          15.55         -156.4          70.03          147.1
    0.2538              -53.67          34.52          50.37          47.67          9.088          4.084         -43.06          15.56         -156.4          70.03          147.1
    0.2961              -53.66          34.52          50.37          47.67          9.082          4.085         -43.06          15.57         -156.3          70.02          147.1
    0.3384              -53.66          34.52          50.36          47.67          9.076          4.085         -43.07          15.59         -156.3          70.02          147.1
    0.3807              -53.66          34.52          50.36          47.67          9.069          4.085         -43.07           15.6         -156.3          70.02          147.0
     0.423              -53.65          34.52          50.36          47.67          9.062          4.085         -43.08          15.62         -156.3          70.02          147.0
    0.4654              -53.65          34.52          50.35          47.67          9.054          4.085         -43.08          15.63         -156.3          70.02          147.0
    0.5077              -53.65          34.52          50.35          47.67          9.046          4.085         -43.09          15.65         -156.2          70.02          147.0
      0.55              -53.64          34.51          50.35          47.67          9.037          4.085         -43.09          15.67         -156.2          70.01          147.0
    0.5923              -53.64          34.51          50.34          47.67          9.027          4.085          -43.1          15.69         -156.2          70.01          147.0
    0.6346              -53.63          34.51          50.34          47.67          9.017          4.086         -43.11          15.71         -156.1          70.01          146.9
    0.6769              -53.63          34.51          50.33          47.67          9.006          4.086         -43.12          15.73         -156.1          70.01          146.9
    0.7192              -53.62          34.51          50.32          47.67          8.993          4.086         -43.12          15.76         -156.1          70.01          146.9
    0.7615              -53.62           34.5          50.32          47.67           8.98          4.086         -43.13          15.79         -156.0           70.0          146.9
    0.8038              -53.61           34.5          50.31          47.67          8.965          4.087         -43.14          15.82         -156.0           70.0          146.8
    0.8461               -53.6           34.5           50.3          47.67          8.948          4.087         -43.16          15.85         -155.9           70.0          146.8
    0.8884              -53.59          34.49          50.29          47.67           8.93          4.087         -43.17          15.89         -155.9          69.99          146.8
    0.9307              -53.58          34.49          50.28          47.67          8.911          4.087         -43.18          15.93         -155.8          69.99          146.7
     0.973              -53.57          34.49          50.27          47.67          8.889          4.088          -43.2          15.97         -155.8          69.98          146.7
     1.015              -53.56          34.48          50.26          47.67          8.864          4.088         -43.22          16.02         -155.7          69.98          146.6
     1.058              -53.55          34.48          50.25          47.67          8.837          4.089         -43.24          16.08         -155.6          69.97          146.6
       1.1              -53.54          34.47          50.23          47.67          8.806          4.089         -43.26          16.14         -155.5          69.97          146.5
     1.142              -53.52          34.47          50.22          47.67          8.772           4.09         -43.28          16.21         -155.4          69.96          146.4
     1.185               -53.5          34.46           50.2          47.68          8.733           4.09         -43.31          16.29         -155.3          69.95          146.4
     1.227              -53.48          34.45          50.18          47.68          8.689          4.091         -43.34          16.38         -155.2          69.94          146.3
     1.269              -53.46          34.44          50.15          47.68          8.639          4.092         -43.38          16.49         -155.1          69.93          146.2
     1.311              -53.43          34.43          50.13          47.68          8.581          4.093         -43.42          16.61         -154.9          69.92          146.0
     1.354               -53.4          34.42          50.09          47.68          8.514          4.094         -43.46          16.74         -154.7           69.9          145.9
     1.396              -53.37          34.41          50.06          47.68          8.437          4.095         -43.52           16.9         -154.5          69.89          145.7
     1.438              -53.33          34.39          50.01          47.68          8.346          4.097         -43.58          17.09         -154.2          69.87          145.6
     1.481              -53.28          34.37          49.96          47.69          8.239          4.099         -43.66          17.31         -153.9          69.85          145.3
     1.523              -53.22          34.35           49.9          47.69          8.112          4.101         -43.75          17.57         -153.5          69.82          145.1
     1.565              -53.15          34.32          49.83          47.69           7.96          4.104         -43.86          17.88         -153.1          69.79          144.8
